HIERARCHY
ROOT Hips
{
	OFFSET 0.000000 83.214638 0.000000
	CHANNELS 6 Xposition Yposition Zposition Xrotation Yrotation Zrotation
	JOINT Pelvis
	{
		OFFSET 0.000000 0.000000 0.000000
		CHANNELS 3 Xrotation Yrotation Zrotation
		JOINT LeftUpLeg
		{
			OFFSET 8.479700 -4.795502 -0.379100
			CHANNELS 3 Xrotation Yrotation Zrotation
			JOINT LeftLeg
			{
				OFFSET 0.024144 -32.555107 0.112900
				CHANNELS 3 Xrotation Yrotation Zrotation
				JOINT LeftFoot
				{
					OFFSET -0.024144 -32.638630 -3.012600
					CHANNELS 3 Xrotation Yrotation Zrotation
					JOINT LeftToeBase
					{
						OFFSET 0.970200 -13.225400 11.864200
						CHANNELS 3 Xrotation Yrotation Zrotation
						End Site
						{
							OFFSET 0.000000 12.319262 0.000000
						}
					}
					JOINT LFootTongue
					{
						OFFSET 1.142400 -1.059800 6.665200
						CHANNELS 3 Xrotation Yrotation Zrotation
						End Site
						{
							OFFSET 0.000000 12.319262 0.000000
						}
					}
				}
				JOINT LeftPantLeg
				{
					OFFSET 0.918482 -16.533964 -2.284700
					CHANNELS 3 Xrotation Yrotation Zrotation
					End Site
					{
						OFFSET 0.350399 24.744368 0.000000
					}
				}
			}
		}
		JOINT RightUpLeg
		{
			OFFSET -8.479700 -4.795502 -0.379100
			CHANNELS 3 Xrotation Yrotation Zrotation
			JOINT RightLeg
			{
				OFFSET -0.023144 -32.555092 0.112900
				CHANNELS 3 Xrotation Yrotation Zrotation
				JOINT RightFoot
				{
					OFFSET 0.023144 -32.638641 -3.012700
					CHANNELS 3 Xrotation Yrotation Zrotation
					JOINT RightToeBase
					{
						OFFSET -0.970200 -13.225400 11.864200
						CHANNELS 3 Xrotation Yrotation Zrotation
						End Site
						{
							OFFSET 0.000000 12.319244 0.000000
						}
					}
					JOINT RFootTongue
					{
						OFFSET -1.142200 -1.059800 6.665200
						CHANNELS 3 Xrotation Yrotation Zrotation
						End Site
						{
							OFFSET 0.000000 12.319243 0.000000
						}
					}
				}
				JOINT RightPantLeg
				{
					OFFSET -0.919482 -16.533978 -2.284800
					CHANNELS 3 Xrotation Yrotation Zrotation
					End Site
					{
						OFFSET -0.350400 24.744419 0.000000
					}
				}
			}
		}
	}
	JOINT Spine
	{
		OFFSET 0.000000 7.722000 1.166200
		CHANNELS 3 Xrotation Yrotation Zrotation
		JOINT Spine1
		{
			OFFSET 0.000000 12.024101 0.248800
			CHANNELS 3 Xrotation Yrotation Zrotation
			JOINT Spine2
			{
				OFFSET 0.000000 11.502998 -0.491200
				CHANNELS 3 Xrotation Yrotation Zrotation
				JOINT Neck
				{
					OFFSET 0.000000 18.430702 -3.123100
					CHANNELS 3 Xrotation Yrotation Zrotation
					JOINT Head
					{
						OFFSET 0.000000 9.051102 1.034000
						CHANNELS 3 Xrotation Yrotation Zrotation
						JOINT HairB
						{
							OFFSET 0.208400 24.786102 24.822300
							CHANNELS 3 Xrotation Yrotation Zrotation
							End Site
							{
								OFFSET 0.000000 32.263779 0.000000
							}
						}
						JOINT HairA
						{
							OFFSET -7.081100 24.428299 23.196600
							CHANNELS 3 Xrotation Yrotation Zrotation
							End Site
							{
								OFFSET 0.000000 32.263779 0.000000
							}
						}
						JOINT Hat
						{
							OFFSET 16.728800 15.048294 -15.439601
							CHANNELS 3 Xrotation Yrotation Zrotation
							End Site
							{
								OFFSET 0.000000 32.263779 0.000000
							}
						}
					}
				}
				JOINT LeftShoulder
				{
					OFFSET 6.197800 13.665199 -4.064700
					CHANNELS 3 Xrotation Yrotation Zrotation
					JOINT LeftArm
					{
						OFFSET 7.778100 -0.187103 -1.709300
						CHANNELS 3 Xrotation Yrotation Zrotation
						JOINT LeftForeArm
						{
							OFFSET 22.049376 0.000000 0.000000
							CHANNELS 3 Xrotation Yrotation Zrotation
							JOINT LeftHand
							{
								OFFSET 23.009392 0.000000 0.000000
								CHANNELS 3 Xrotation Yrotation Zrotation
								JOINT LeftHandThumb1
								{
									OFFSET 3.507191 -2.063065 3.133727
									CHANNELS 3 Xrotation Yrotation Zrotation
									JOINT LeftHandThumb2
									{
										OFFSET 3.101337 -1.790558 1.790558
										CHANNELS 3 Xrotation Yrotation Zrotation
										JOINT LeftHandThumb3
										{
											OFFSET 3.058640 -1.765907 1.765906
											CHANNELS 3 Xrotation Yrotation Zrotation
											End Site
											{
												OFFSET -0.415260 3.926476 -0.049563
											}
										}
									}
								}
								JOINT LeftHandIndex1
								{
									OFFSET 11.334419 -0.901459 3.706815
									CHANNELS 3 Xrotation Yrotation Zrotation
									JOINT LeftHandIndex2
									{
										OFFSET 3.283112 0.000000 0.000000
										CHANNELS 3 Xrotation Yrotation Zrotation
										JOINT LeftHandIndex3
										{
											OFFSET 3.323853 0.000000 0.000000
											CHANNELS 3 Xrotation Yrotation Zrotation
											End Site
											{
												OFFSET -1.135597 3.097809 0.402452
											}
										}
									}
								}
								JOINT LeftHandMiddle1
								{
									OFFSET 11.335861 0.000000 0.000000
									CHANNELS 3 Xrotation Yrotation Zrotation
									JOINT LeftHandMiddle2
									{
										OFFSET 3.410492 0.000000 0.000000
										CHANNELS 3 Xrotation Yrotation Zrotation
										JOINT LeftHandMiddle3
										{
											OFFSET 3.312172 0.000000 0.000000
											CHANNELS 3 Xrotation Yrotation Zrotation
											End Site
											{
												OFFSET -1.150200 3.080154 0.400270
											}
										}
									}
								}
								JOINT LeftHandRing1
								{
									OFFSET 11.514786 -0.013176 -3.003090
									CHANNELS 3 Xrotation Yrotation Zrotation
									JOINT LeftHandRing2
									{
										OFFSET 3.053307 0.000000 0.000000
										CHANNELS 3 Xrotation Yrotation Zrotation
										JOINT LeftHandRing3
										{
											OFFSET 3.295807 0.000000 0.000000
											CHANNELS 3 Xrotation Yrotation Zrotation
											End Site
											{
												OFFSET -1.281006 3.013344 0.375733
											}
										}
									}
								}
								JOINT LeftHandPinky1
								{
									OFFSET 10.518692 -0.960396 -5.730441
									CHANNELS 3 Xrotation Yrotation Zrotation
									JOINT LeftHandPinky2
									{
										OFFSET 2.861649 0.000000 0.000000
										CHANNELS 3 Xrotation Yrotation Zrotation
										JOINT LeftHandPinky3
										{
											OFFSET 2.863380 0.000000 0.000000
											CHANNELS 3 Xrotation Yrotation Zrotation
											End Site
											{
												OFFSET -0.843597 2.711159 0.369971
											}
										}
									}
								}
							}
							JOINT LSleeve
							{
								OFFSET 6.676277 -0.344902 -1.011730
								CHANNELS 3 Xrotation Yrotation Zrotation
								End Site
								{
									OFFSET 0.000000 14.885353 0.000000
								}
							}
						}
					}
				}
				JOINT RightShoulder
				{
					OFFSET -6.197800 13.665199 -4.064700
					CHANNELS 3 Xrotation Yrotation Zrotation
					JOINT RightArm
					{
						OFFSET -7.778100 -0.187103 -1.709300
						CHANNELS 3 Xrotation Yrotation Zrotation
						JOINT RightForeArm
						{
							OFFSET -22.049376 0.000000 0.000000
							CHANNELS 3 Xrotation Yrotation Zrotation
							JOINT RightHand
							{
								OFFSET -23.009392 0.000000 0.000000
								CHANNELS 3 Xrotation Yrotation Zrotation
								JOINT RightHandThumb1
								{
									OFFSET -3.507191 -2.063065 3.133727
									CHANNELS 3 Xrotation Yrotation Zrotation
									JOINT RightHandThumb2
									{
										OFFSET -3.101337 -1.790558 1.790558
										CHANNELS 3 Xrotation Yrotation Zrotation
										JOINT RightHandThumb3
										{
											OFFSET -3.058640 -1.765907 1.765906
											CHANNELS 3 Xrotation Yrotation Zrotation
											End Site
											{
												OFFSET 0.415260 3.926476 -0.049563
											}
										}
									}
								}
								JOINT RightHandIndex1
								{
									OFFSET -11.334419 -0.901459 3.706815
									CHANNELS 3 Xrotation Yrotation Zrotation
									JOINT RightHandIndex2
									{
										OFFSET -3.283112 0.000000 0.000000
										CHANNELS 3 Xrotation Yrotation Zrotation
										JOINT RightHandIndex3
										{
											OFFSET -3.323853 0.000000 0.000000
											CHANNELS 3 Xrotation Yrotation Zrotation
											End Site
											{
												OFFSET 1.135597 3.097809 0.402452
											}
										}
									}
								}
								JOINT RightHandMiddle1
								{
									OFFSET -11.335861 0.000000 0.000000
									CHANNELS 3 Xrotation Yrotation Zrotation
									JOINT RightHandMiddle2
									{
										OFFSET -3.410492 0.000000 0.000000
										CHANNELS 3 Xrotation Yrotation Zrotation
										JOINT RightHandMiddle3
										{
											OFFSET -3.312172 0.000000 0.000000
											CHANNELS 3 Xrotation Yrotation Zrotation
											End Site
											{
												OFFSET 1.150200 3.080154 0.400270
											}
										}
									}
								}
								JOINT RightHandRing1
								{
									OFFSET -11.514786 -0.013176 -3.003090
									CHANNELS 3 Xrotation Yrotation Zrotation
									JOINT RightHandRing2
									{
										OFFSET -3.053307 0.000000 0.000000
										CHANNELS 3 Xrotation Yrotation Zrotation
										JOINT RightHandRing3
										{
											OFFSET -3.295807 0.000000 0.000000
											CHANNELS 3 Xrotation Yrotation Zrotation
											End Site
											{
												OFFSET 1.281006 3.013344 0.375733
											}
										}
									}
								}
								JOINT RightHandPinky1
								{
									OFFSET -10.518692 -0.960396 -5.730441
									CHANNELS 3 Xrotation Yrotation Zrotation
									JOINT RightHandPinky2
									{
										OFFSET -2.861649 0.000000 0.000000
										CHANNELS 3 Xrotation Yrotation Zrotation
										JOINT RightHandPinky3
										{
											OFFSET -2.863380 0.000000 0.000000
											CHANNELS 3 Xrotation Yrotation Zrotation
											End Site
											{
												OFFSET 0.843597 2.711159 0.369971
											}
										}
									}
								}
							}
							JOINT RSleeve
							{
								OFFSET -6.676277 -0.344902 -1.011730
								CHANNELS 3 Xrotation Yrotation Zrotation
								End Site
								{
									OFFSET 0.000000 14.885353 0.000000
								}
							}
						}
					}
				}
				JOINT Backpack
				{
					OFFSET 0.000000 -2.471497 36.677502
					CHANNELS 3 Xrotation Yrotation Zrotation
					End Site
					{
						OFFSET 0.000000 20.427315 0.000000
					}
				}
				JOINT Hood
				{
					OFFSET 0.000000 18.754097 -10.431000
					CHANNELS 3 Xrotation Yrotation Zrotation
					JOINT Hood1
					{
						OFFSET 0.000000 -5.011002 -7.685901
						CHANNELS 3 Xrotation Yrotation Zrotation
						End Site
						{
							OFFSET 0.000000 9.175140 0.000000
						}
					}
				}
				JOINT LHoodieString
				{
					OFFSET 5.250500 16.397697 3.089900
					CHANNELS 3 Xrotation Yrotation Zrotation
					JOINT LHoodieString1
					{
						OFFSET 0.257700 -6.364304 3.694600
						CHANNELS 3 Xrotation Yrotation Zrotation
						JOINT LHoodieString2
						{
							OFFSET 0.000000 -9.643799 2.679100
							CHANNELS 3 Xrotation Yrotation Zrotation
							End Site
							{
								OFFSET 0.000000 10.009018 0.000000
							}
						}
					}
				}
				JOINT RHoodieString
				{
					OFFSET -5.250500 16.397697 3.089900
					CHANNELS 3 Xrotation Yrotation Zrotation
					JOINT RHoodieString1
					{
						OFFSET -0.257700 -6.364304 3.694600
						CHANNELS 3 Xrotation Yrotation Zrotation
						JOINT RHoodieString2
						{
							OFFSET 0.000000 -9.643799 2.679100
							CHANNELS 3 Xrotation Yrotation Zrotation
							End Site
							{
								OFFSET 0.000000 10.009018 0.000000
							}
						}
					}
				}
			}
			JOINT LBackpack_Strap
			{
				OFFSET 15.223200 -7.719803 -6.610900
				CHANNELS 3 Xrotation Yrotation Zrotation
				End Site
				{
					OFFSET 0.000000 16.040596 0.000000
				}
			}
			JOINT RBackpack_Strap
			{
				OFFSET -15.223000 -7.719803 -6.610900
				CHANNELS 3 Xrotation Yrotation Zrotation
				End Site
				{
					OFFSET 0.000000 16.040596 0.000000
				}
			}
		}
	}
	JOINT BoyFacialAnim_Joint
	{
		OFFSET 1.000000 -82.208099 -1.550900
		CHANNELS 3 Xrotation Yrotation Zrotation
		End Site
		{
			OFFSET 0.000000 30.012791 0.000000
		}
	}
}
MOTION
Frames: 4
Frame Time: 0.016667
6.831064 75.770264 1.622478 7.619452 -12.399044 -1.187117 -0.000000 -0.000000 -0.000000 -38.722016 6.294942 12.427816 50.995053 10.562701 -0.628221 -18.577676 4.058679 -7.610615 -0.000000 0.000000 -0.000000 -0.000000 0.000000 0.000000 0.000003 -0.000000 0.000001 -27.854551 -7.503940 -14.239364 51.138746 -8.819653 -4.019890 -12.467389 -1.341863 11.539586 0.000001 0.000001 0.000000 0.000001 0.000001 0.000000 -0.000000 -0.000000 -0.000001 12.235002 3.434972 -0.752650 8.663415 6.770422 -1.612662 -3.297302 6.958100 -0.159534 -0.991915 -3.974975 2.371376 -6.068531 4.595728 3.692734 0.000000 0.000000 0.000000 0.000000 0.000000 0.000000 0.000000 0.000000 0.000000 -1.718768 -6.046466 -0.999763 -9.929223 -3.537263 -61.475678 -13.021843 -28.779227 -4.874854 3.253032 -3.484881 2.550455 9.040744 -12.718920 18.216743 1.363598 15.487444 -8.835096 -0.000001 -0.000003 0.000002 0.246859 -3.282366 -9.380903 0.146908 -0.568591 -12.524016 -0.000000 -0.000001 -0.000005 0.303778 -1.400848 -19.445115 -0.067856 -0.992370 -19.744974 -0.000001 -0.000002 -0.000002 0.311356 -1.053615 -29.065607 -0.418709 -1.362098 -26.922181 -0.000002 0.000001 -0.000000 0.350737 -0.343930 -35.674665 -0.294694 -1.232615 -23.599866 0.000001 0.000002 0.000000 0.000000 0.000000 0.000001 5.719875 -19.303436 3.068949 43.556734 52.747608 9.950973 16.038099 32.046821 10.507627 -14.715649 13.315902 13.704582 9.209779 13.472184 -12.080020 2.060347 -16.534851 8.984666 0.000003 0.000001 -0.000002 0.272414 4.252671 3.917178 0.097342 0.794953 17.452781 -0.000001 0.000000 0.000000 0.238354 1.901021 12.464135 -0.127019 0.878988 17.470135 -0.000003 0.000001 -0.000003 0.354426 1.611347 15.137402 -0.271880 0.900473 18.135631 -0.000000 -0.000001 -0.000001 0.691697 0.544330 20.829715 -0.117081 0.729747 14.164451 -0.000001 -0.000001 -0.000003 -0.000001 -0.000001 0.000001 0.000000 -0.000000 -0.000000 0.000000 -0.000000 -0.000000 0.000000 -0.000000 -0.000000 0.000000 -0.000000 -0.000000 0.000000 -0.000000 -0.000000 -0.000002 -0.000000 -0.000000 0.000000 -0.000000 -0.000000 0.000000 -0.000000 -0.000000 -0.000002 -0.000000 -0.000000 0.000002 0.000000 -0.000000 0.000002 0.000000 -0.000000 -0.000000 -0.000000 -0.000000 
6.924155 76.057213 1.506871 7.679300 -12.448717 -1.514792 0.000001 -0.000001 0.000000 -38.511974 6.322741 12.620221 50.081901 10.547830 -0.549388 -18.049654 3.996839 -7.448958 -0.000000 0.000000 -0.000000 -0.000000 0.000000 0.000000 0.000001 -0.000000 0.000000 -27.208723 -7.822072 -13.577413 48.982227 -8.125838 -3.905208 -13.324884 -0.874513 12.008628 0.000000 -0.000000 0.000001 0.000000 -0.000000 0.000001 -0.000002 -0.000000 -0.000001 12.188748 3.390251 -0.685066 8.547014 6.722062 -1.512191 -3.408235 6.901166 -0.063846 -1.053641 -3.761028 2.184398 -5.982004 4.507762 3.913931 0.000003 0.000000 -0.000001 0.000003 0.000000 -0.000001 0.000003 0.000000 -0.000001 -1.721884 -5.625956 -0.861950 -9.809319 -3.483231 -61.749657 -12.683612 -28.217829 -4.423296 2.945140 -3.556560 2.922801 8.621198 -13.079498 18.342630 1.306475 15.454479 -8.827672 0.000001 -0.000001 -0.000000 0.229292 -3.521990 -8.971253 0.151039 -0.550430 -12.121732 -0.000001 -0.000000 -0.000004 0.267623 -1.573902 -19.285056 -0.064375 -0.926955 -18.408111 0.000003 -0.000003 -0.000000 0.257085 -1.314065 -28.904223 -0.368990 -1.304190 -25.643841 -0.000000 -0.000001 -0.000002 0.348994 -0.523214 -35.437159 -0.234775 -1.172891 -22.279358 -0.000001 -0.000000 -0.000004 0.000001 0.000002 -0.000002 5.552878 -18.831825 2.973356 39.568242 52.456587 11.456167 15.406289 28.844333 12.492166 -12.915769 11.870636 10.921158 8.723130 10.519479 -15.535911 3.760569 -18.612713 9.384833 0.000001 0.000000 0.000000 0.272399 4.252694 3.917193 0.097357 0.794935 17.452762 -0.000001 0.000000 0.000004 0.238606 1.901082 12.464101 -0.127003 0.878893 17.470142 0.000001 -0.000000 -0.000000 0.333457 1.685678 16.601062 -0.293340 0.971906 19.599069 -0.000001 -0.000001 -0.000001 0.658931 0.626606 22.524502 -0.138281 0.820292 15.858967 0.000003 0.000002 -0.000003 -0.000001 -0.000000 -0.000001 0.000000 0.000000 -0.000000 0.000000 0.000000 -0.000000 0.000000 0.000000 -0.000000 0.000000 0.000000 -0.000000 0.000000 0.000000 0.000000 0.000000 0.000000 0.000000 0.000000 0.000000 -0.000000 0.000000 0.000000 0.000000 0.000000 0.000000 0.000000 0.000000 -0.000000 0.000000 0.000000 -0.000000 0.000000 0.000001 -0.000001 0.000000 
7.003841 76.366295 1.383201 7.696032 -12.601355 -1.693833 -0.000000 0.000001 0.000000 -38.139862 6.490637 12.709069 48.997137 10.567964 -0.471652 -17.450543 3.969292 -7.293834 -0.000000 0.000000 -0.000000 -0.000000 0.000000 -0.000000 0.000000 0.000001 0.000000 -26.441669 -8.037951 -13.057329 46.565805 -7.499759 -3.775557 -14.089951 -0.446895 12.371657 0.000001 0.000000 -0.000000 0.000001 0.000000 -0.000000 -0.000005 0.000001 -0.000000 12.122705 3.363286 -0.625886 8.392769 6.705787 -1.434637 -3.557803 6.874138 0.015578 -1.257226 -3.492914 1.762464 -5.750386 4.331826 4.311510 0.000002 0.000000 0.000000 0.000002 0.000000 0.000000 0.000002 0.000000 0.000000 -1.718688 -4.981516 -0.876835 -9.750004 -3.501927 -62.027414 -12.393329 -27.714435 -3.952338 2.908203 -3.641420 2.842443 8.234333 -13.400428 18.456501 1.254997 15.424693 -8.821075 0.000001 -0.000001 0.000002 0.217572 -3.737803 -8.582411 0.154709 -0.534108 -11.758749 0.000001 -0.000003 -0.000006 0.236395 -1.729265 -19.127272 -0.062513 -0.868300 -17.202212 0.000001 0.000003 0.000001 0.210334 -1.547678 -28.740104 -0.325337 -1.250632 -24.490874 -0.000001 -0.000001 -0.000000 0.351877 -0.683524 -35.201139 -0.181887 -1.117248 -21.088351 0.000002 0.000002 0.000002 0.000000 0.000002 0.000001 5.335511 -18.451759 2.888867 35.701324 51.672294 13.059065 16.301507 26.406584 13.088698 -11.445508 11.784212 6.571860 8.389712 8.489668 -17.965498 4.956789 -20.040680 9.703282 0.000000 -0.000000 0.000001 0.272389 4.252688 3.917166 0.097341 0.794948 17.452834 -0.000000 -0.000001 0.000003 0.238825 1.901177 12.464113 -0.127022 0.878935 17.470135 -0.000001 -0.000000 -0.000000 0.317766 1.737020 17.612027 -0.308437 1.021275 20.609998 0.000002 -0.000001 -0.000001 0.634945 0.682629 23.695195 -0.152821 0.879828 17.029571 -0.000000 -0.000001 -0.000003 -0.000001 -0.000002 0.000000 -0.000000 0.000000 0.000000 -0.000000 0.000000 0.000000 -0.000000 0.000000 0.000000 -0.000000 0.000000 0.000000 -0.000000 0.000000 -0.000000 0.000001 0.000000 -0.000000 -0.000000 0.000000 0.000000 -0.000000 0.000000 -0.000000 0.000001 0.000000 -0.000000 0.000000 -0.000000 -0.000000 0.000000 -0.000000 -0.000000 -0.000000 0.000001 0.000000 
7.047805 76.653465 1.282161 7.717059 -12.705304 -1.859584 -0.000000 0.000001 -0.000000 -37.821291 6.825452 12.785299 47.928243 10.358055 -0.222243 -16.881564 4.025680 -7.153784 -0.000000 0.000000 -0.000000 -0.000000 0.000000 0.000000 -0.000000 0.000000 -0.000000 -25.667250 -8.244991 -12.624765 44.137413 -7.136814 -3.579381 -14.680052 0.166744 12.689301 0.000001 -0.000002 0.000001 0.000001 -0.000002 0.000001 0.000000 -0.000000 -0.000002 12.055068 3.337571 -0.569300 8.235420 6.693142 -1.358527 -3.710610 6.857832 0.094729 -1.458326 -3.264164 1.331756 -5.486254 4.125539 4.660445 0.000001 0.000000 0.000001 0.000001 0.000000 0.000001 0.000001 0.000000 0.000001 -1.716040 -4.454585 -0.893411 -9.717395 -3.541835 -62.272276 -11.923628 -27.096113 -3.494371 2.744761 -3.959304 2.862277 7.883955 -13.676967 18.558650 1.209544 15.398668 -8.814994 0.000002 -0.000001 -0.000001 0.211196 -3.927036 -8.217447 0.157839 -0.519711 -11.439759 0.000000 -0.000002 -0.000000 0.210198 -1.865051 -18.972515 -0.061827 -0.817029 -16.141861 -0.000000 -0.000002 -0.000002 0.171256 -1.751788 -28.573639 -0.287833 -1.202491 -23.477054 -0.000004 0.000001 0.000001 0.356395 -0.823111 -34.967485 -0.136344 -1.066875 -20.041223 0.000002 0.000001 -0.000000 -0.000001 0.000001 -0.000001 5.098992 -17.776587 2.830944 31.146820 51.316868 16.165641 17.702658 22.785043 11.882994 -9.757214 12.247049 4.285798 8.265277 7.734458 -18.880849 5.407751 -20.572246 9.831246 -0.000001 0.000002 0.000000 0.272382 4.252677 3.917157 0.097384 0.794962 17.452800 -0.000000 0.000000 0.000002 0.239044 1.901196 12.464084 -0.127002 0.878928 17.470132 -0.000000 -0.000000 -0.000000 0.313135 1.756770 17.989240 -0.312741 1.040283 20.987156 0.000001 0.000000 0.000000 0.625745 0.703348 24.132021 -0.156817 0.902481 17.466293 0.000001 -0.000003 0.000003 0.000000 -0.000000 0.000001 0.000001 0.000000 0.000000 0.000001 0.000000 0.000000 0.000001 0.000000 0.000000 0.000001 0.000000 0.000000 0.000001 0.000000 -0.000000 0.000001 0.000000 -0.000000 0.000001 0.000000 0.000000 0.000001 0.000000 -0.000000 0.000001 0.000000 -0.000000 0.000001 0.000000 0.000000 0.000001 0.000000 0.000000 -0.000000 0.000001 -0.000000 
